<?xml version="1.0" encoding="UTF-8"?>
<svg id="Layer_1" data-name="Layer 1" xmlns="http://www.w3.org/2000/svg" version="1.1" viewBox="0 0 32 32">
  <defs>
    <style>
      .cls-1 {
        stroke-width: .6px;
      }

      .cls-1, .cls-2 {
        stroke-miterlimit: 10;
      }

      .cls-1, .cls-2, .cls-3, .cls-4 {
        fill: none;
        stroke: #000;
      }

      .cls-2, .cls-3, .cls-4 {
        stroke-width: 1.4px;
      }

      .cls-3 {
        isolation: isolate;
        opacity: .9;
      }

      .cls-3, .cls-4 {
        stroke-linecap: round;
        stroke-linejoin: round;
      }
    </style>
  </defs>
  <path class="cls-3" d="M16,7.6l1.8-3.7c7.2.4,11.8,6.3,11.8,13.6h0c0,7.5-6.1,13.6-13.6,13.6S2.4,25,2.4,17.5,7,4.3,14.2,3.9l.2.5,1.6,3.2Z"/>
  <circle class="cls-1" cx="16" cy="17.5" r="1.9"/>
  <line class="cls-2" x1="21.2" y1="5" x2="16.7" y2="15.8"/>
  <line class="cls-2" x1="28.7" y1="12.3" x2="17.9" y2="16.8"/>
  <line class="cls-2" x1="14.3" y1="18.2" x2="3.5" y2="22.7"/>
  <line class="cls-2" x1="3.5" y1="12.3" x2="14.3" y2="16.8"/>
  <line class="cls-2" x1="17.9" y1="18.3" x2="28.7" y2="22.8"/>
  <line class="cls-2" x1="16.7" y1="19.3" x2="21.2" y2="30.1"/>
  <line class="cls-2" x1="15.2" y1="19.3" x2="10.7" y2="30.2"/>
  <line class="cls-2" x1="10.8" y1="5" x2="15.3" y2="15.8"/>
  <path class="cls-4" d="M13.5,2.5"/>
  <polygon class="cls-4" points="17.7 4.1 17.8 3.9 18.6 2.3 13.4 2.3 14.2 3.9 16 7.6 17.7 4.1"/>
</svg>