<?xml version="1.0" encoding="UTF-8"?>
<svg xmlns="http://www.w3.org/2000/svg" xmlns:xlink="http://www.w3.org/1999/xlink" width="40px" height="30px" viewBox="0 0 40 30" version="1.1">
<g id="surface1">
<path style=" stroke:none;fill-rule:evenodd;fill:rgb(25.490196%,25.098039%,25.882353%);fill-opacity:1;" d="M 33.050781 6.550781 C 35.25 5.851562 37 6.199219 37.949219 8.398438 C 37.300781 7.648438 36.699219 7 35.898438 6.699219 C 35.050781 6.398438 34.050781 6.449219 33.050781 6.5 Z M 33.050781 6.550781 "/>
<path style=" stroke:none;fill-rule:evenodd;fill:rgb(25.490196%,25.098039%,25.882353%);fill-opacity:1;" d="M 31.300781 7.199219 C 33.199219 6.550781 34.050781 6.949219 34.800781 7.699219 C 35.25 8.148438 35.601562 8.800781 36.25 9.148438 C 36.601562 9.351562 36.851562 9.25 37.351562 9.25 C 34.25 9.898438 35.699219 6.949219 31.25 7.199219 Z M 31.300781 7.199219 "/>
<path style=" stroke:none;fill-rule:evenodd;fill:rgb(25.490196%,25.098039%,25.882353%);fill-opacity:1;" d="M 25.199219 7.5 C 24.148438 6.800781 23.050781 6.800781 21.851562 7.300781 C 21.148438 6.398438 20.601562 5.949219 20.449219 6.648438 C 20.25 6.449219 20.101562 6.300781 19.800781 6.25 C 19.800781 6.25 19.800781 6.351562 19.800781 6.398438 C 19.300781 6.101562 19.699219 5.5 20.25 6.199219 C 20.648438 5.851562 21.25 5.898438 22.050781 6.898438 C 23.25 6.449219 24.351562 6.5 25.199219 7.5 Z M 25.199219 7.5 "/>
<path style=" stroke:none;fill-rule:evenodd;fill:rgb(25.490196%,25.098039%,25.882353%);fill-opacity:1;" d="M 24 8.351562 C 24.601562 9.25 23.300781 9.949219 22.5 9.300781 C 23.25 9.300781 23.800781 9.050781 24 8.351562 Z M 24 8.351562 "/>
<path style=" stroke:none;fill-rule:evenodd;fill:rgb(25.490196%,25.098039%,25.882353%);fill-opacity:1;" d="M 25.148438 8.75 C 24.699219 8.300781 24.449219 7.898438 22.449219 8.5 C 21 8.898438 19.800781 7.75 18.699219 6.550781 C 17.800781 5.601562 17.050781 5.800781 16.800781 5.101562 C 16.800781 5.050781 16.800781 4.949219 16.75 4.851562 C 16.648438 4.101562 18.101562 4.601562 19.300781 4 C 19.148438 3.800781 18.898438 3.75 18.898438 3.5 C 20.199219 3.949219 21.699219 2.648438 22.699219 3.398438 C 22.699219 3 22.851562 2.699219 23.199219 2.648438 C 22.949219 3.601562 24 3.351562 24.800781 5.050781 C 24.800781 5.148438 24.949219 5.199219 24.949219 5.300781 C 24.199219 4.75 24.101562 4.148438 23.449219 3.898438 C 22.851562 3.648438 22.050781 3.601562 21.148438 3.699219 C 20.25 3.949219 19.851562 4.398438 18.949219 4.601562 C 18.550781 4.699219 18.101562 4.75 17.351562 4.75 C 17.101562 4.75 16.800781 4.949219 17.148438 5.25 C 17.398438 5.449219 18 5.550781 18.648438 6.050781 C 19.398438 6.601562 20.25 8 21.449219 8.050781 C 22.25 8.050781 23.5 7.75 24.199219 7.898438 C 24.699219 8 25 8.398438 25.101562 8.800781 Z M 25.148438 8.75 "/>
<path style=" stroke:none;fill-rule:evenodd;fill:rgb(25.490196%,25.098039%,25.882353%);fill-opacity:1;" d="M 26.449219 7.25 C 27.101562 6.5 26.449219 5.648438 25.449219 5.601562 C 25.648438 6.148438 26.050781 6.199219 26.25 6.5 C 25.75 6.25 25.199219 6.199219 24.699219 6.050781 C 24.101562 5.898438 23.949219 5.398438 23.5 5.25 C 23.550781 5.550781 23.800781 5.699219 23.800781 6.050781 C 23.25 5.5 22.550781 5.5 22.050781 5.050781 C 22.050781 5.199219 22.25 5.449219 22.5 5.800781 C 22.050781 5.5 21.5 5.300781 20.949219 5.300781 C 21.101562 5.449219 21.300781 5.5 21.449219 5.648438 C 20.398438 5.398438 19.351562 5.75 19.199219 4.949219 C 19.550781 5.148438 19.898438 5.300781 20.300781 5.199219 C 20.148438 4.949219 20.050781 4.75 20.101562 4.449219 C 20.550781 5.050781 21.148438 4.949219 21.648438 5.148438 C 21.601562 4.800781 21.648438 4.449219 21.851562 4.25 C 22.148438 4.648438 22.5 5.050781 23.148438 5.25 C 23.25 4.949219 23.449219 4.648438 23.648438 4.398438 C 24.050781 5.25 24.601562 5.851562 25.449219 5.851562 C 25.300781 5.601562 25.25 5.398438 25.25 5.199219 C 25.25 5.300781 25.25 5.351562 25.351562 5.398438 C 27.351562 5.101562 28.25 7.5 26.449219 7.148438 Z M 26.449219 7.25 "/>
<path style=" stroke:none;fill-rule:evenodd;fill:rgb(25.490196%,25.098039%,25.882353%);fill-opacity:1;" d="M 40 6.050781 C 37.25 5.898438 36.75 4.898438 33.351562 4.601562 C 32.550781 3.601562 32.050781 3.449219 32.050781 3.101562 C 31.949219 3.101562 31.851562 3.199219 31.75 3.148438 L 25.449219 1.5 C 22.75 2.75 19.101562 1.851562 18.199219 0.351562 C 18.199219 1.101562 18.75 1.898438 19.648438 2.699219 C 17.75 3.101562 16.050781 2.949219 14.550781 2.101562 C 14.851562 2.800781 15.398438 3.398438 16.199219 3.851562 C 14.351562 4.550781 12.550781 4.601562 10.800781 3.898438 C 11.148438 4.398438 11.75 4.949219 12.699219 5.449219 C 10.300781 6.449219 8.449219 6.800781 7.648438 5.949219 C 7.851562 6.5 8.75 7 10 7.398438 C 8.851562 7.800781 5.949219 8.851562 4.75 7.898438 C 5.148438 8.550781 5.898438 9.050781 6.800781 9.449219 C 5.949219 9.851562 5 10.101562 4.148438 10.25 C 3.25 10.398438 2.5 10.449219 2.050781 10.050781 C 2.449219 10.648438 3.148438 11.101562 4.101562 11.449219 C 2.148438 12.800781 0.949219 12.851562 0.0507812 12.300781 C 1 13.300781 2.101562 14.101562 3.449219 14.351562 C 3.351562 14.75 3.050781 14.601562 2.800781 15.050781 C 3.199219 15.050781 3.550781 14.699219 3.949219 14.800781 C 3.351562 15.648438 4.101562 16.300781 3.148438 17.300781 C 4.148438 17.300781 3.601562 16.898438 5.449219 17 C 5.648438 17 5.898438 17 6.25 16.800781 C 5.550781 18.25 6.398438 18.699219 5.601562 20.101562 C 6.648438 19.550781 7.550781 19.800781 8.550781 19.550781 C 8.550781 20.550781 8.550781 21.550781 7.949219 22.648438 C 9.148438 21.898438 10 22.648438 11.5 21.949219 C 10.851562 23 11.648438 24.050781 11 25 C 12.050781 24.398438 13.050781 25.101562 13.949219 24.601562 C 13.699219 27.300781 14.5 28.699219 15.5 29.898438 C 15.601562 28.351562 15.5 26.75 16.898438 25.851562 C 17.199219 26.398438 17.5 26.949219 17.851562 27.449219 C 17.851562 25.800781 18.148438 24.300781 19.25 23.300781 C 19.5 24.050781 19.949219 24.648438 20.449219 25.148438 C 20.101562 23.601562 20 22 21.648438 20.351562 C 21.898438 21.050781 22.25 21.75 22.648438 22.351562 C 22.449219 20.851562 22.648438 19.449219 23.800781 18.25 C 23.949219 18.75 24.25 19.199219 24.601562 19.601562 C 24.5 17.300781 26.449219 14.800781 28.449219 14.699219 C 29.050781 14.699219 29.699219 15.101562 30.148438 15.648438 C 30.199219 16.898438 29.898438 16.351562 29.75 17.101562 C 30.148438 16.75 30.648438 16.550781 31.398438 16.601562 C 31.398438 17.199219 31 17.148438 31.398438 18.449219 C 31.550781 16.75 33.5 17.898438 33.949219 15 C 34.800781 14.25 35.300781 13.5 35.148438 12.648438 C 34.398438 12.398438 34.148438 13.398438 33.449219 13.550781 C 33.351562 13.148438 33.148438 12.898438 32.800781 12.648438 C 32.699219 12.949219 32.5 13.148438 32.300781 13.25 C 32.351562 12.851562 32.199219 12.449219 31.851562 12.050781 C 31.5 12.5 31.101562 12.601562 30.648438 12.601562 C 30.648438 12.050781 30.449219 11.601562 30.148438 11.148438 C 30 11.648438 29.699219 11.699219 29.351562 11.648438 C 29.5 11.148438 29.398438 10.800781 29.101562 10.601562 C 28.648438 11.601562 26.648438 10.199219 28.351562 9.351562 C 28.5 9.800781 28.699219 10.148438 29.148438 10.398438 C 29.398438 10.148438 29.601562 9.898438 30 9.75 C 30.300781 10.101562 30.398438 10.648438 30.949219 10.75 C 31.25 10.550781 31.5 10.199219 31.898438 9.949219 C 32.199219 10.300781 32.050781 10.648438 32.398438 11 C 32.851562 10.898438 33.050781 10.199219 33.550781 10.300781 C 33.851562 10.449219 33.851562 10.800781 33.75 11.25 C 34.300781 11.351562 34.851562 11.148438 35.449219 10.648438 C 35.5 11.050781 35.199219 11.5 34.851562 12 C 35.648438 12.101562 36.449219 11.949219 37.050781 10.300781 C 37.648438 10.101562 38.101562 9.75 38.199219 9.148438 C 38.800781 8.949219 39.199219 8.449219 39.300781 7.601562 C 39.851562 7.148438 40.101562 6.601562 40.050781 5.949219 Z M 33 5.050781 C 33.648438 5 34.351562 5.050781 34.949219 5.148438 C 33.398438 5.148438 32.398438 5.648438 31.351562 6 C 31.5 5.75 31.648438 5.449219 31.699219 5.101562 C 32 5.351562 32.300781 5.449219 32.699219 5.351562 C 32.398438 5.300781 32.148438 5.148438 32 4.949219 C 32.25 4.550781 32.199219 4.101562 31.699219 3.601562 C 32.050781 3.75 32.5 4.199219 33 5.050781 Z M 9.5 6.75 C 10.75 6.550781 12 6.199219 13.199219 5.648438 C 12.75 6.101562 12.398438 6.601562 12.351562 7.101562 C 11.300781 7.199219 10.398438 7.050781 9.5 6.699219 Z M 15.800781 7.351562 C 15.550781 7.5 15.351562 7.699219 15.199219 8.050781 C 13.75 8.949219 13.398438 8.148438 12.5 8.199219 C 12.851562 7.550781 12.550781 6.5 14.050781 5.699219 C 14.449219 5.851562 14.851562 5.898438 15.300781 5.800781 C 15 6.398438 14.648438 6.851562 14.300781 7.25 C 14.800781 7.351562 15.050781 7.050781 15.851562 7.351562 Z M 17.5 9.851562 C 16.949219 10.5 15.898438 10.351562 15 10.449219 C 15.449219 9.449219 15 8.050781 16.351562 7.5 C 16.800781 7.601562 17.199219 7.648438 17.648438 7.699219 C 17.648438 8.550781 17.851562 9.5 17.5 9.898438 Z M 20.398438 12.800781 C 21.300781 12.101562 22.25 12.5 22.949219 12.300781 C 22.699219 13 22.800781 13.75 22.699219 14.5 C 21.5 15.449219 20.550781 15 19.5 15.300781 C 20.101562 14.699219 19.25 13.75 20.398438 12.851562 Z M 20.050781 12.199219 C 19.449219 13.199219 17.949219 12.601562 17.148438 13.148438 C 17.648438 12.101562 16.75 10.601562 18.699219 10 L 20.148438 10 C 20.148438 10.75 20.300781 11.699219 20 12.199219 Z M 18.800781 15.648438 C 17.851562 16.699219 17.101562 15.800781 16.300781 16.398438 C 16.800781 15.800781 15.851562 14.601562 17.101562 13.601562 C 18 12.851562 18.949219 13.601562 19.5 13.050781 C 19.050781 13.550781 19.800781 14.5 18.800781 15.601562 Z M 17.949219 19.25 C 17.5 19.949219 16.351562 19.75 15.550781 20.398438 C 15.949219 19.648438 14.800781 18.699219 15.648438 17.550781 C 16.648438 16.199219 17.699219 17.050781 18.148438 16.699219 C 18 17.699219 18.25 18.800781 17.898438 19.300781 Z M 9 10.449219 C 8.5 10.949219 8.199219 11.550781 8.050781 12.199219 C 7.300781 12.300781 6.699219 12.050781 6.050781 12 C 7.101562 11 7.199219 9.851562 9.050781 9.601562 C 8.851562 9.949219 8.601562 10.25 8.25 10.5 C 8.5 10.5 8.75 10.5 9 10.449219 Z M 9.898438 10.601562 C 10.25 10.75 10.699219 10.800781 11.300781 10.699219 C 11.300781 11.148438 10.898438 11.550781 10.398438 11.949219 C 10.648438 11.949219 10.898438 11.949219 11.101562 11.851562 C 10.648438 12.300781 10.398438 12.75 10.351562 13.25 C 9.550781 13.699219 8.75 13.601562 7.949219 13.449219 C 8.800781 12.75 8.25 11 9.898438 10.648438 Z M 14.648438 11.199219 C 15.75 10.351562 16.699219 11 17.199219 10.550781 C 16.699219 11.101562 17.199219 12.300781 16.601562 13.101562 C 16.050781 13.75 14.550781 13.648438 13.949219 14 C 14.550781 13.398438 13.851562 11.800781 14.648438 11.199219 Z M 11.449219 11.449219 C 12.050781 10.550781 11.601562 9.648438 13.351562 8.699219 C 13.800781 8.851562 14.300781 8.898438 14.851562 8.648438 C 14.898438 11.351562 13.351562 11.648438 11.449219 11.449219 Z M 13.800781 11.699219 C 13.648438 12.648438 13.699219 13.648438 13.101562 14.199219 C 12.449219 14.800781 11.398438 14.949219 10.398438 15.148438 C 11 14.449219 10.398438 13.199219 11.148438 12.398438 C 11.898438 11.601562 13.050781 12.050781 13.75 11.699219 Z M 8.199219 13.800781 C 8.851562 14 9.550781 14.101562 10.199219 13.898438 C 10.300781 14.851562 9.949219 15.25 9.601562 15.601562 C 9.699219 15.601562 9.851562 15.601562 9.949219 15.601562 C 9.25 16.25 8.148438 16.351562 7 16.300781 C 7 15.449219 7 14.25 8.199219 13.75 Z M 10.25 15.949219 C 10.75 15.449219 11.75 15.351562 12.648438 15.101562 C 12.5 16.148438 12.699219 17.101562 12.351562 17.601562 C 11.851562 18.300781 10.851562 18.101562 9.5 18.398438 C 9.898438 17.601562 9.699219 16.550781 10.199219 15.949219 Z M 15 17.550781 C 14.5 18.550781 15.449219 19.75 15 20.398438 C 14.699219 20.800781 13.851562 20.75 12.148438 21.101562 C 11.949219 18.75 12 17.851562 15 17.550781 Z M 12.898438 17.449219 C 13.398438 16.75 12.601562 15.5 13.601562 14.648438 C 14.648438 13.75 15.550781 14.25 16.300781 13.898438 C 15.800781 14.449219 16.199219 15.949219 15.601562 16.648438 C 14.898438 17.5 13.648438 16.949219 12.949219 17.398438 Z M 12.199219 7.550781 C 12.25 7.75 12.148438 8.050781 11.699219 8.5 C 12 8.648438 12.398438 8.398438 12.800781 8.648438 C 10.648438 9.648438 12.699219 11.101562 9.351562 10.148438 C 10.300781 9.300781 9.199219 7.300781 12.199219 7.601562 Z M 6.050781 8.601562 C 7.25 8.601562 8.5 8.351562 9.898438 7.898438 C 9.601562 8.300781 9.351562 8.851562 9.199219 9.398438 C 7.898438 9.5 6.898438 9.148438 6.101562 8.601562 Z M 3.449219 10.601562 C 4.949219 10.550781 6.25 9.898438 7.75 9.699219 C 6.800781 10.148438 6.351562 10.800781 6 11.5 C 4.949219 11.351562 4.148438 11 3.449219 10.601562 Z M 3.699219 13.851562 C 2.851562 13.75 2.101562 13.5 1.5 12.949219 C 2.75 12.75 3.800781 12.300781 4.601562 11.550781 L 5.148438 11.75 C 4.300781 12.199219 3.898438 13 3.648438 13.898438 Z M 5.449219 12.101562 C 5.199219 12.300781 5.148438 12.550781 5.148438 12.75 C 5.5 12.351562 6.449219 12.351562 7.898438 12.699219 C 7.648438 13.148438 7.351562 13.449219 7 13.75 C 7.101562 13.800781 7.25 13.800781 7.398438 13.800781 C 6.851562 14.550781 5.601562 14.601562 3.949219 14.300781 C 4.5 13.050781 4.898438 12.148438 5.449219 12.148438 Z M 4 16.601562 C 4.199219 16 4 15.050781 4.601562 14.800781 C 5.199219 14.949219 5.898438 14.949219 6.699219 14.800781 C 6.398438 15.898438 7.550781 16.449219 4 16.601562 Z M 6.351562 19.25 C 6.699219 18.699219 5.898438 17.550781 7.050781 16.898438 C 7.5 16.648438 8.25 16.75 9.449219 16.550781 C 8.851562 18.351562 10 19.050781 6.398438 19.25 Z M 8.800781 21.75 C 9.148438 21.050781 8.800781 19.949219 9.199219 19.300781 C 9.550781 18.699219 10.601562 18.5 11.851562 18.550781 C 11.25 20.300781 12.648438 22 8.800781 21.800781 Z M 11.601562 24.300781 C 11.949219 23.601562 11.601562 22.75 11.949219 22.101562 C 12.5 21.148438 13.75 21.550781 14.898438 21.101562 C 14.898438 22.648438 15.449219 24.550781 11.601562 24.351562 Z M 15 28.148438 C 14.300781 26.25 13.398438 23.800781 16.449219 23.398438 C 16.351562 24.050781 16.449219 24.699219 16.601562 25.300781 C 15.800781 25.75 15.300781 26.851562 15 28.148438 Z M 17.449219 25.601562 C 17.101562 24.898438 16.898438 24.101562 17.050781 23.148438 C 17.699219 23 18.300781 22.699219 18.851562 22.148438 L 19 22.601562 C 18.050781 23.550781 17.601562 24.550781 17.449219 25.648438 Z M 18.898438 20.398438 C 18.851562 22.398438 18.101562 22.300781 15.5 23.101562 C 15.648438 22.601562 15.5 22.5 15.5 22.25 C 15.5 21.648438 15.5 21.199219 15.75 20.949219 C 16.050781 20.550781 16.648438 20.449219 17.199219 20.300781 C 17.898438 20.101562 18.101562 19.699219 19.101562 19.601562 C 19.101562 19.898438 18.949219 20.148438 18.949219 20.398438 Z M 19.699219 23.148438 C 19.351562 22.101562 19.25 20.949219 19.699219 19.5 C 20.300781 19.5 20.898438 19.25 21.5 18.851562 L 21.5 19.648438 C 20.699219 20.351562 20.101562 21.449219 19.75 23.148438 Z M 18.398438 19.300781 C 19.148438 18.050781 17.449219 15.898438 20.601562 15.601562 C 20.351562 16.5 20.75 17.050781 20.148438 18.25 C 20.550781 17.898438 21 17.601562 21.699219 17.601562 C 20.648438 19.851562 19.5 18.75 18.398438 19.351562 Z M 23.601562 17.601562 C 22.851562 18.148438 22.398438 19.148438 22.148438 20.398438 C 21.898438 19.449219 21.75 18.449219 22.25 17.5 C 22.699219 17.398438 23.199219 17.199219 23.601562 16.851562 Z M 21.050781 17.25 C 21.101562 16.648438 20.800781 16.050781 21.25 15.5 C 21.601562 15.5 22 15.449219 22.398438 15.101562 C 22.398438 15.550781 22.5 15.800781 22.648438 15.949219 C 22.648438 15.5 23.101562 15.25 23.898438 15.101562 C 23.449219 17.25 22.398438 16.699219 21 17.25 Z M 33.300781 13.898438 C 33.75 13.800781 34.25 13.449219 34.75 12.851562 C 34.851562 13.351562 34.300781 13.949219 33.800781 14.5 C 33.25 14.300781 33 14.101562 33.300781 13.898438 Z M 32.851562 13.199219 C 33.148438 13.351562 33.101562 13.601562 32.851562 14 C 32.648438 13.949219 32.5 13.851562 32.398438 13.699219 C 32.550781 13.5 32.699219 13.351562 32.898438 13.199219 Z M 31.800781 12.648438 C 31.898438 12.898438 31.851562 13.148438 31.800781 13.351562 C 31.398438 13.300781 31.148438 13.148438 30.949219 13 C 31.148438 12.800781 31.449219 12.699219 31.851562 12.699219 Z M 30.101562 11.75 C 30.300781 11.949219 30.300781 12.199219 30.199219 12.449219 C 29.699219 12.351562 29.449219 12.148438 29.398438 11.898438 C 29.648438 11.898438 29.898438 11.851562 30.148438 11.699219 Z M 29.050781 11.050781 C 29.148438 11.300781 29.050781 11.5 28.851562 11.699219 C 28.601562 11.601562 28.5 11.398438 28.398438 11.199219 C 28.601562 11.199219 28.851562 11.148438 29.050781 11.050781 Z M 29.101562 9.949219 C 28.800781 9.648438 28.648438 9.300781 28.851562 8.800781 C 29.351562 8.75 29.648438 8.949219 29.75 9.351562 C 29.5 9.5 29.300781 9.699219 29.101562 9.949219 Z M 30.949219 10.398438 C 30.601562 10.148438 30.398438 9.898438 30.398438 9.601562 C 30.75 9.398438 31.148438 9.5 31.5 9.800781 C 31.300781 9.949219 31.101562 10.199219 30.949219 10.449219 Z M 32.550781 10.550781 C 32.398438 10.351562 32.300781 10.148438 32.351562 9.949219 C 32.550781 9.949219 32.800781 10.101562 32.898438 10.300781 C 32.800781 10.398438 32.699219 10.5 32.550781 10.601562 Z M 33.898438 10.101562 C 33.648438 9.949219 33.351562 9.949219 33.101562 10.050781 C 32.75 9.648438 32.398438 9.5 32 9.648438 C 31.398438 9.101562 30.800781 9 30.148438 9.351562 C 30.050781 8.898438 29.851562 8.648438 29.449219 8.5 C 31.25 7.601562 32.148438 9.300781 34.101562 9.800781 C 34.148438 9.898438 34.25 10 34.351562 10.101562 C 34.199219 10.101562 34.050781 10.101562 33.949219 10.148438 Z M 34.199219 11.101562 C 34.199219 10.800781 34.199219 10.5 34.050781 10.300781 C 34.449219 10.199219 34.800781 10.199219 35.101562 10.300781 C 35.050781 10.800781 34.648438 11 34.199219 11.148438 Z M 35.398438 11.800781 C 35.648438 11.449219 35.800781 11.050781 35.898438 10.449219 C 36.101562 10.449219 36.351562 10.449219 36.550781 10.449219 C 36.199219 11.449219 35.800781 11.699219 35.398438 11.75 Z M 38.75 7.449219 C 38.75 8.148438 38.351562 8.550781 37.851562 8.851562 C 36.648438 11.851562 33 8.351562 30.800781 7.949219 C 30.898438 7.851562 31.199219 7.800781 31.449219 7.75 C 29.449219 7.300781 27.648438 9.148438 25.851562 11.300781 C 26.101562 11.75 26.148438 12.050781 26.101562 12.5 C 26.351562 12.148438 26.25 11.101562 26.851562 10.601562 C 27.050781 11.199219 27.199219 11.75 27.648438 12 C 27.398438 11.601562 27.25 11.148438 27.351562 10.601562 C 27.398438 11.5 30.25 13.050781 33.5 14.699219 C 33.5 16.648438 32.300781 16.449219 31.601562 17.050781 C 31.800781 16.601562 32.5 16.25 31.898438 15.5 C 31.800781 16.601562 30.898438 16 30.398438 16.148438 C 30.050781 13.601562 25.75 13.351562 24.050781 18.050781 C 23.898438 17.25 23.800781 16.398438 24.398438 15 C 25.351562 14.699219 26.050781 14.199219 26 13.101562 C 25.25 14.898438 23.898438 14.398438 22.851562 15.050781 C 23.449219 14.050781 22.699219 12.898438 23.449219 12.050781 C 23.601562 11.898438 23.648438 11.351562 23.449219 11.199219 C 22.851562 12.449219 21.300781 11.851562 20.351562 12.300781 C 21 11.25 20 10.449219 21.101562 9.050781 C 19.300781 10.25 19.199219 9.300781 17.800781 9.898438 C 18.351562 8.898438 17.351562 8.101562 18.5 6.851562 C 16.199219 7.851562 16.199219 6.851562 15.050781 6.851562 C 15.449219 6.351562 15.398438 5.601562 16.199219 5.199219 L 16.199219 4.800781 C 15.851562 5 15.601562 5.25 15.351562 5.550781 C 14.25 5.5 13.398438 5.25 12.648438 4.75 C 14.199219 4.75 15.800781 4.398438 17.5 3.898438 C 16.851562 3.800781 16.300781 3.550781 15.851562 3.148438 C 17.398438 3.300781 18.949219 3.300781 20.601562 3 C 20 2.75 19.648438 2.351562 19.351562 1.851562 C 21.050781 2.648438 22.949219 2.898438 25.25 1.949219 C 25.800781 2.101562 26.398438 2.199219 27.101562 2.300781 C 26.898438 2.449219 26.300781 2.449219 25.601562 2.398438 C 26.398438 3.101562 29.050781 2.351562 29.75 3.25 C 28.800781 3.398438 28.148438 4.25 27.050781 3.851562 C 27.5 4.300781 28.550781 3.949219 29.550781 3.851562 C 30.601562 3.699219 31.601562 3.75 31.449219 4.800781 C 29.699219 4.800781 28 4.898438 26.300781 5.050781 C 28.851562 5.550781 27.199219 5.800781 29.648438 6.898438 C 24.851562 8.851562 26.25 9.101562 24.949219 11.25 C 25.449219 10.898438 25.5 10.601562 25.601562 10.25 C 25.898438 9.5 26.148438 8.699219 29.351562 7.398438 C 29.851562 7.199219 29.898438 7.199219 30.601562 7.101562 L 30.050781 7.101562 C 32.898438 5.148438 36.851562 4.75 38.25 7.398438 C 38.449219 7.398438 38.648438 7.398438 38.851562 7.25 C 38.601562 7.050781 38.5 6.898438 39.101562 6.851562 C 39.050781 6.601562 38.75 6.601562 38.300781 6.699219 C 38.101562 6.5 38 6.300781 37.949219 6.148438 C 38.398438 6.148438 38.898438 6.199219 39.351562 6.25 C 39.199219 6.898438 38.949219 7.398438 38.601562 7.449219 Z M 30.949219 5.800781 C 30.550781 5.550781 30.050781 5.351562 29.550781 5.199219 C 30.050781 5.148438 30.648438 5.101562 31.199219 5.148438 C 31.199219 5.398438 31.148438 5.601562 31 5.800781 Z M 30.949219 6.199219 C 29.148438 7.398438 28.898438 5.5 27.898438 5.148438 C 29.148438 5.050781 30.300781 5.851562 30.949219 6.199219 Z M 30.949219 6.199219 "/>
<path style=" stroke:none;fill-rule:evenodd;fill:rgb(25.490196%,25.098039%,25.882353%);fill-opacity:1;" d="M 27.101562 11.851562 C 27.199219 11.851562 27.351562 12.050781 27.5 12.351562 C 28.199219 12.648438 28.699219 13.050781 29.148438 13.25 C 31.699219 14.449219 31 14.800781 32.5 15 C 32.351562 15.101562 32.101562 15.148438 31.75 15.148438 C 30.601562 14.300781 29.648438 13.851562 28.398438 13.199219 C 28 13 27.699219 12.800781 27.25 12.550781 C 27.351562 12.300781 27.148438 12.101562 27.101562 11.851562 Z M 27.101562 11.851562 "/>
</g>
</svg>
